<?xml version="1.0" encoding="UTF-8" standalone="no"?>
<!-- Created with Inkscape (http://www.inkscape.org/) -->

<svg
   version="1.1"
   id="svg1"
   width="559.88"
   height="229.44"
   viewBox="0 0 559.88 229.44"
   sodipodi:docname="CIENCIAS_ULISBOA_MARCA_HORIZONTAL_VECTOR_CMYK_BRANCO.svg"
   inkscape:version="1.3 (0e150ed6c4, 2023-07-21)"
   xmlns:inkscape="http://www.inkscape.org/namespaces/inkscape"
   xmlns:sodipodi="http://sodipodi.sourceforge.net/DTD/sodipodi-0.dtd"
   xmlns="http://www.w3.org/2000/svg"
   xmlns:svg="http://www.w3.org/2000/svg">
  <defs
     id="defs1" />
  <sodipodi:namedview
     id="namedview1"
     pagecolor="#323232"
     bordercolor="#999999"
     borderopacity="1"
     inkscape:showpageshadow="0"
     inkscape:pageopacity="0"
     inkscape:pagecheckerboard="0"
     inkscape:deskcolor="#d1d1d1"
     inkscape:zoom="1.7580501"
     inkscape:cx="256.81862"
     inkscape:cy="118.88171"
     inkscape:window-width="2560"
     inkscape:window-height="1386"
     inkscape:window-x="0"
     inkscape:window-y="0"
     inkscape:window-maximized="1"
     inkscape:current-layer="g1">
    <inkscape:page
       x="0"
       y="0"
       inkscape:label="1"
       id="page1"
       width="559.88"
       height="229.44"
       margin="0"
       bleed="0" />
  </sodipodi:namedview>
  <g
     id="g1"
     inkscape:groupmode="layer"
     inkscape:label="1">
    <g
       id="group-R5"
       transform="translate(-72.800161,-72.800161)"
       style="fill:#ffffff;fill-opacity:1">
      <path
         id="path2"
         d="m 4319.48,1026.58 c -39.82,0 -72.98,30.11 -72.98,73.99 v 0.06 c 0,43.8 33.16,72.4 72.98,72.4 35.7,0 73.46,-25.5 73.46,-72.4 0,-47 -34.73,-74.05 -73.46,-74.05 z m 73.95,158.63 c -16.33,27.02 -51.52,38.75 -80.08,38.75 -64.3,0 -120.85,-47.89 -120.85,-123.92 0,-76.02 56.55,-124.411 120.85,-124.411 29.56,0 64.27,13.269 80.08,39.231 v -34.13 h 51.95 v 238.12 h -51.95 z m 278.39,422.39 -42.69,11.35 c -15.1,3.78 -21.56,11.35 -22.13,18.91 -0.54,11.35 10.25,18.91 26.48,18.91 11.86,0 28.06,-3.26 28.62,-22.15 h 70.64 c -0.52,61.52 -53.37,83.65 -103.61,83.65 -52.91,0 -97.73,-34.53 -98.24,-71.79 -0.58,-23.2 0,-61.54 75.57,-82.1 l 32.97,-8.65 c 18.32,-4.84 24.81,-10.8 24.81,-21.6 0,-12.95 -14.03,-20.54 -30.76,-21.06 -20.53,0 -36.72,14.58 -37.27,29.14 h -70.19 c 0.5,-56.11 53.97,-86.85 105.3,-86.85 52.93,0 109,25.36 109,78.77 0,16.19 -7.58,56.74 -68.5,73.47 z m -659.91,-581.02 c -39.27,0 -71.94,29.08 -71.94,73.99 0,43.86 32.67,71.92 71.94,71.92 39.82,0 72.49,-28.06 72.49,-71.92 0,-44.91 -32.67,-73.99 -72.49,-73.99 z m 0,197.38 c -67.36,0 -123.92,-47.89 -123.92,-123.39 0,-75.51 56.56,-124.941 123.92,-124.941 67.91,0 124.93,49.431 124.93,124.941 0,75.5 -57.02,123.39 -124.93,123.39 z M 4324,1527.09 c -31.32,0 -63.18,23.77 -63.18,60 v 0.02 c 0,36.17 31.86,59.95 63.18,59.95 30.83,0 61.09,-22.18 61.09,-59.95 0,-37.85 -30.26,-60.02 -61.09,-60.02 z m 61.09,157.68 c -19.47,28.08 -57.29,33.5 -73.47,33.5 -64.3,0 -128.48,-50.18 -128.48,-131.18 0,-81.04 64.18,-131.22 128.48,-131.22 19.44,0 57.27,9.2 73.47,33.48 v -28.61 h 74.44 v 252.11 h -74.44 z M 3246.94,1348.39 c -18.86,0 -35.12,-14.23 -35.12,-33.12 0,-18.83 16.26,-33.13 35.12,-33.13 19.37,0 34.67,14.3 34.67,33.13 0,18.89 -15.3,33.12 -34.67,33.12 z m 214.2,-231.5 -36.72,9.17 c -12.72,3.59 -25.96,9.21 -29.02,18.37 -2.57,7.14 -2.08,14.79 2.03,21.44 5.1,8.17 20.37,13.27 33.63,13.27 16.33,0 32.67,-7.69 34.67,-25.51 h 49.94 c -3.06,50.98 -44.31,70.33 -86.61,70.33 -43.89,0 -82.17,-27.51 -85.22,-62.67 -3.04,-38.26 15.3,-63.79 65.78,-77.54 l 32.16,-7.69 c 17.33,-4.07 33.16,-12.75 33.16,-28.02 0,-17.88 -18.38,-28.6 -42.36,-28.6 -27.54,0.03 -44.35,13.78 -46.91,34.16 h -48.45 c 1.02,-49.94 46.9,-77.971 91.29,-77.971 54.59,0 94.83,26.021 94.83,71.871 0,23.97 -10.73,56.62 -62.2,69.39 z m -240.2,-136.16 h 51.97 v 238.12 h -51.97 z m 371.51,480.01 h 74.95 v 150.64 c 0,71.81 -35.57,106.89 -92.25,106.89 -29.73,0 -59.44,-16.74 -72.96,-42.1 v 36.68 h -75.03 v -252.11 h 75.03 v 133.37 c 0,38.37 19.99,51.32 46.48,51.32 25.37,0 43.78,-16.74 43.78,-50.23 z m 385.46,48.55 -61.03,43.21 c -10.27,-16.23 -29.14,-25.41 -48.59,-25.41 -31.87,0 -62.66,24.31 -62.66,60.51 0,36.22 30.79,58.91 62.66,58.91 19.45,0 38.32,-9.17 48.59,-25.41 l 61.03,43.75 c -24.31,33.99 -64.81,53.42 -109.62,53.42 -72.39,0 -137.1,-51.27 -137.1,-130.67 0,-79.38 64.71,-132.24 137.1,-132.24 45.35,0 85.83,19.94 109.62,53.93 z m -271.47,-482.71 c -38.8,0 -72.96,27.54 -72.96,73.99 0,46.93 37.26,72.46 72.96,72.46 39.8,0 71.95,-28.6 71.95,-72.46 0,-43.88 -32.15,-73.99 -71.95,-73.99 z m 6.65,197.38 c -33.7,0 -65.33,-13.24 -80.13,-39.23 v 163.66 H 3580.5 V 980.73 h 52.46 v 34.7 c 14.8,-25.532 47.46,-39.801 79.58,-39.801 64.31,0 119.33,48.911 119.33,123.931 0,76.51 -54.02,124.4 -118.78,124.4 z m -696.21,108.13 h -53.96 V 980.73 h 194.73 v 49.43 h -140.77 z m 19.33,380.76 h -74.44 v -252.11 h 74.44 z M 965.605,1873.64 h -62.992 v 44.01 h 79.504 v 36.1 H 861.461 v -192.91 h 41.152 v 77 h 62.992 z M 3234.92,1652.45 c 21.08,0 49.13,-12.44 52.92,-43.28 h -109.08 c 6.48,31.93 35.11,43.28 56.16,43.28 z m -0.54,-197.09 c 42.69,0 89.63,13.46 115,51.24 l -54.52,37.27 c -12.4,-16.22 -34.57,-23.78 -55.05,-23.78 -26.49,0 -58.35,12.95 -62.1,42.18 h 184.67 c 0.55,6.47 1.07,16.7 1.07,23.18 0,79.4 -57.23,132.82 -129.07,132.82 -72.34,0 -131.75,-51.27 -131.75,-130.67 0,-79.41 59.41,-132.24 131.75,-132.24 z M 1397.16,1129.48 c -146.6,0 -253.7,122.39 -253.7,274.1 0,153.02 107.1,275.39 253.7,275.39 90.55,0 167.04,-45.86 214.23,-114.73 l 151.74,104.54 c -76.52,112.22 -209.1,186.17 -365.97,186.17 -251.18,0 -441.137,-201.44 -441.137,-451.37 0,-247.32 189.957,-450.049 441.137,-450.049 159.42,0 293.25,76.509 369.81,192.539 l -150.49,104.53 c -47.16,-71.38 -127.5,-121.12 -219.32,-121.12 z m 1601.83,632.6 c 25.36,0 45.88,19.43 45.88,44.24 0,24.82 -20.52,43.73 -45.88,43.73 -25.4,0 -46.98,-18.91 -46.98,-43.73 0,-24.81 21.58,-44.24 46.98,-44.24 z m -189.06,-659.51 c 0,-45.39 -35.22,-74.96 -75.53,-74.96 -40.33,0 -75.51,29.57 -75.51,74.96 v 229.52 h -55.02 v -229.52 c 0,-76.99 60.12,-126.941 130.53,-126.941 69.87,0 129.99,49.951 129.99,126.941 v 229.52 h -54.46 z M 732.359,2076.02 H 2075.96 V 732.371 H 732.359 Z M 553.777,553.77 H 2254.59 v 1700.8 H 553.777 Z M 2746.24,1529.8 c -62.09,0 -107.47,51.84 -107.47,116.14 0,64.82 45.38,116.66 107.47,116.66 38.33,0 70.74,-19.44 90.7,-48.6 l 64.28,44.3 c -32.41,47.45 -88.57,78.77 -154.98,78.77 -106.39,0 -186.78,-85.28 -186.78,-191.13 0,-104.78 80.39,-190.58 186.78,-190.58 67.49,0 124.18,32.35 156.61,81.44 l -63.73,44.32 c -19.97,-30.26 -53.97,-51.32 -92.88,-51.32 z m 1295.98,-69.06 h 74.44 v 252.11 h -74.44 z m -809.45,341.22 42.68,-48.05 h 53.96 l -59.38,90.7 h -74.49 l -58.87,-90.7 h 53.99 z m 846.64,-39.88 c 25.38,0 45.88,19.43 45.88,44.24 0,24.82 -20.5,43.73 -45.88,43.73 -25.33,0 -46.94,-18.91 -46.94,-43.73 0,-24.81 21.61,-44.24 46.94,-44.24"
         style="fill:#ffffff;fill-opacity:1;fill-rule:nonzero;stroke:none"
         transform="matrix(0.13333333,0,0,-0.13333333,0,374.44)" />
    </g>
  </g>
</svg>
